<svg width="32" height="32" viewBox="0 0 32 32" fill="none" xmlns="http://www.w3.org/2000/svg">
<g clip-path="url(#clip0_10_77)">
<path fill-rule="evenodd" clip-rule="evenodd" d="M16.009 0.004284C18.2233 0.004284 20.4377 -0.005966 22.6519 0.0072215C24.7351 0.019659 26.6915 0.494721 28.3867 1.76113C30.6005 3.41497 31.7333 5.67407 31.9442 8.40003C32.0184 9.35941 31.9953 10.3271 31.9966 11.291C32.0016 15.0291 31.9988 18.7673 31.9984 22.5054C31.9983 24.0322 31.7859 25.5228 31.1399 26.9189C29.8293 29.7509 27.5433 31.2991 24.5271 31.8356C23.8982 31.9474 23.2495 31.9892 22.6097 31.9911C18.193 32.0042 13.7763 32.0012 9.35957 31.9966C7.06286 31.9942 4.96229 31.3877 3.17226 29.8976C1.35361 28.3839 0.393918 26.4041 0.0953872 24.0829C0.0438872 23.6826 0.0123559 23.2765 0.0119809 22.8731C0.0076684 18.2302 -0.0203628 13.5871 0.0251372 8.94466C0.0500122 6.40822 0.894575 4.15935 2.78276 2.38732C4.34898 0.917565 6.25276 0.149597 8.36836 0.0744403C10.9122 -0.0159347 13.4618 0.053034 16.0089 0.053034C16.009 0.0367527 16.009 0.0205027 16.009 0.004284ZM15.984 29.0433C18.1147 29.0433 20.2452 29.0518 22.3757 29.0374C22.9329 29.0336 23.4982 29.0059 24.0449 28.907C26.1333 28.5295 27.721 27.482 28.553 25.4486C28.9758 24.4156 29.1139 23.3072 29.1319 22.2337C29.2018 18.069 29.1624 13.9024 29.1574 9.7365C29.1569 9.28519 29.152 8.82885 29.0882 8.38353C28.8018 6.38391 27.9349 4.74494 26.0947 3.74825C25.0675 3.19197 23.9524 2.98194 22.7934 2.98157C18.33 2.98025 13.8665 2.97894 9.40304 2.98428C8.99967 2.98478 8.59273 3.0071 8.19361 3.06319C5.92029 3.38238 4.24582 4.50275 3.40782 6.70694C3.06964 7.59641 2.96157 8.52844 2.96139 9.47472C2.96073 13.8311 2.95654 18.1873 2.96711 22.5437C2.96839 23.0767 3.00814 23.6173 3.10354 24.141C3.52676 26.4646 4.82242 28.0617 7.12989 28.7039C7.89882 28.9178 8.72079 29.0123 9.5212 29.0284C11.6748 29.0716 13.8297 29.0431 15.984 29.0433Z" fill="black"/>
<path fill-rule="evenodd" clip-rule="evenodd" d="M24.2469 15.9491C24.2449 20.5046 20.528 24.2099 15.9713 24.1988C11.4128 24.1878 7.74176 20.5083 7.73911 15.9479C7.73645 11.3926 11.4478 7.68693 16.0079 7.6919C20.5288 7.69677 24.249 11.4252 24.2469 15.9491ZM15.9962 21.2247C18.9026 21.2269 21.2964 18.8348 21.2914 15.9333C21.2864 13.0518 18.8987 10.6596 16.0158 10.6479C13.1136 10.6361 10.7209 13.0209 10.7148 15.9315C10.7086 18.8462 13.0794 21.2224 15.9962 21.2247Z" fill="black"/>
<path fill-rule="evenodd" clip-rule="evenodd" d="M24.5529 9.35431C23.521 9.34509 22.7077 8.5194 22.711 7.48456C22.7142 6.43796 23.548 5.61737 24.6007 5.62456C25.6208 5.63162 26.4521 6.47356 26.449 7.49656C26.4459 8.53406 25.5992 9.36365 24.5529 9.35431Z" fill="black"/>
</g>
<defs>
<clipPath id="clip0_10_77">
<rect width="32" height="32" fill="white"/>
</clipPath>
</defs>
</svg>
