<svg width="32" height="32" viewBox="0 0 32 32" fill="none" xmlns="http://www.w3.org/2000/svg">
<path d="M5.95455 0C2.69267 0 0 2.69267 0 5.95455V26.0455C0 29.3073 2.69267 32 5.95455 32H26.0455C29.3073 32 32 29.3073 32 26.0455V5.95455C32 2.69267 29.3073 0 26.0455 0H5.95455ZM5.95455 2.90909H26.0455C27.7349 2.90909 29.0909 4.26515 29.0909 5.95455V26.0455C29.0909 27.7349 27.7349 29.0909 26.0455 29.0909H5.95455C4.26515 29.0909 2.90909 27.7349 2.90909 26.0455V5.95455C2.90909 4.26515 4.26515 2.90909 5.95455 2.90909Z" fill="black"/>
<path d="M7.02355 21.4275C8.89412 21.5968 10.5797 21.1227 12.1138 19.9646C10.509 19.8223 9.43578 19.0164 8.83693 17.5061C9.36177 17.5704 9.85296 17.5874 10.3744 17.4452C8.64516 16.9033 7.72333 15.7655 7.59885 13.9302C8.11696 14.174 8.60479 14.3501 9.18009 14.3568C8.15397 13.5814 7.62913 12.5756 7.64932 11.3091C7.65941 10.7267 7.81417 10.1781 8.12032 9.66C10.0212 11.8984 12.4065 13.1378 15.3436 13.3443C15.3267 13.2156 15.3166 13.114 15.3032 13.0091C15.061 11.1331 16.2721 9.42635 18.1225 9.07078C19.2832 8.84729 20.3093 9.15544 21.1773 9.96139C21.3119 10.0833 21.4263 10.1104 21.5945 10.0664C22.2707 9.89366 22.9133 9.64307 23.5357 9.30444C23.2969 10.0968 22.8057 10.6928 22.1395 11.194C22.2909 11.1669 22.4457 11.1466 22.5971 11.1161C22.7552 11.0823 22.9133 11.045 23.0714 11.001C23.2228 10.9603 23.3709 10.9129 23.5189 10.8621C23.6703 10.8114 23.8217 10.7538 24 10.7233C23.9125 10.8452 23.8284 10.9739 23.7342 11.0924C23.344 11.5902 22.8931 12.027 22.3986 12.4165C22.3481 12.4571 22.3044 12.5451 22.3077 12.6061C22.3347 13.8082 22.1664 14.9799 21.7795 16.1177C21.0192 18.3595 19.6936 20.1745 17.7053 21.4715C16.7229 22.1115 15.6497 22.5314 14.5025 22.7752C13.3653 23.0156 12.2215 23.0597 11.0742 22.9242C9.92361 22.7888 8.8302 22.4467 7.80071 21.9117C7.5282 21.7729 7.26578 21.6171 7 21.4681C7.01009 21.4546 7.01682 21.441 7.02355 21.4275Z" fill="black"/>
</svg>
